<svg width="43" height="49" viewBox="0 0 43 49" fill="none" xmlns="http://www.w3.org/2000/svg">
<path d="M21.4068 0L11.489 15.6765L15.4561 22.075L21.4068 12.7972L27.3575 22.075L31.3246 15.6765L21.4068 0Z" fill="#568EFF"/>
<path d="M41.1591 4.96387C41.092 4.94413 41.0201 4.97154 40.9826 5.03039L27.3571 26.4507L21.5396 17.4428C21.4819 17.3532 21.3333 17.3532 21.2756 17.4428L15.4579 26.4507L1.83255 5.03039C1.79512 4.97134 1.72339 4.94403 1.65599 4.96387C1.58888 4.98333 1.5427 5.04484 1.5427 5.11479V17.784C1.5427 17.8139 1.55115 17.8431 1.56727 17.8683L11.3569 33.2889C11.3858 33.3343 11.4358 33.3618 11.4896 33.3618H19.3599C19.4107 33.3618 19.4584 33.3371 19.4881 33.2957L21.4075 30.5964L23.3269 33.2957C23.3565 33.3371 23.4042 33.3618 23.4551 33.3618H31.3253C31.3792 33.3618 31.4293 33.3343 31.458 33.2889L41.2477 17.8683C41.2638 17.8431 41.2722 17.8139 41.2722 17.784V5.11479C41.2722 5.04484 41.226 4.98343 41.1589 4.96387H41.1591Z" fill="white"/>
<path d="M4.08051 26.9827L6.05689 30.0936L8.03326 33.2045H4.08051H0.127663L2.10404 30.0936L4.08051 26.9827Z" fill="#568EFF"/>
<path d="M38.7342 26.9827L36.7577 30.0936L34.7814 33.2045H38.7342H42.687L40.7106 30.0936L38.7342 26.9827Z" fill="#568EFF"/>
<path d="M8.46784 38.5745H31.5371L35.5742 41.7465V48.9556H12.505L8.46784 44.9185V38.5745Z" fill="#568EFF"/>
<path d="M15.0739 46.6488L12.8038 40.7061H14.1049L15.7475 45.2554L17.3992 40.7061H18.7003L16.4396 46.6488H15.0739Z" fill="#211E36"/>
<path d="M22.0845 46.7411C21.2663 46.7411 20.6173 46.5442 20.1374 46.1505C19.6637 45.7506 19.4269 45.1724 19.4269 44.4157V40.7061H20.6726V44.3234C20.6726 44.7786 20.7957 45.1201 21.0417 45.3477C21.2878 45.5691 21.6354 45.6799 22.0845 45.6799C22.5335 45.6799 22.878 45.5691 23.118 45.3477C23.364 45.1201 23.4871 44.7786 23.4871 44.3234V40.7061H24.7328V44.4157C24.7328 45.1724 24.496 45.7506 24.0223 46.1505C23.5486 46.5442 22.9026 46.7411 22.0845 46.7411Z" fill="#211E36"/>
<path d="M25.8225 46.6488V40.7061H30.0857V41.6751H27.0682V43.1976H29.7442V44.1573H27.0682V45.6891H30.0857V46.6488H25.8225Z" fill="#211E36"/>
</svg>
